<?xml version="1.0" encoding="iso-8859-1"?>
<!-- Generator: Adobe Illustrator 19.0.0, SVG Export Plug-In . SVG Version: 6.00 Build 0)  -->
<svg version="1.1" id="Capa_1" xmlns="http://www.w3.org/2000/svg" xmlns:xlink="http://www.w3.org/1999/xlink" x="0px" y="0px"
	 viewBox="0 0 512 512" style="enable-background:new 0 0 512 512;" xml:space="preserve">
<circle style="fill:#00B9ED;" cx="256" cy="256" r="256"/>
<path style="fill:#0082AE;" d="M510.488,283.838c-72.853-71.913-168.837-166.656-169.049-166.859
	c-0.936-1.021-11.481-6.912-15.902-6.822c-0.244-0.254-5.419-5.412-5.764-5.737C317.901,102.406,121,205.314,121,205.314
	l84.624,83.847l-48.072,135.414l87.163,87.163C248.458,511.901,252.217,512,256,512C387.977,512,496.613,412.126,510.488,283.838z"
	/>
<path style="fill:#FFD69B;" d="M365.44,147.92c0.03-5.049-1.749-10.124-5.393-14.171c-3.644-4.048-8.506-6.348-13.53-6.845
	c-1.02-4.945-3.816-9.539-8.222-12.74s-9.639-4.44-14.657-3.883c-2.026-4.624-5.715-8.537-10.691-10.752s-10.352-2.339-15.144-0.75
	c-2.943-4.102-7.365-7.162-12.693-8.294c-5.327-1.133-10.612-0.136-14.969,2.415c-3.732-3.4-8.694-5.474-14.14-5.474l-13.18,89.067
	l122.62-13.18L365.44,147.92L365.44,147.92z"/>
<path style="fill:#FFEFD9;" d="M241.86,92.899c-4.357-2.55-9.642-3.547-14.969-2.415s-9.75,4.192-12.693,8.294
	c-4.792-1.589-10.169-1.465-15.144,0.75c-4.976,2.215-8.665,6.128-10.691,10.752c-5.018-0.557-10.251,0.681-14.657,3.883
	c-4.406,3.201-7.202,7.796-8.222,12.74c-5.024,0.498-9.885,2.798-13.53,6.845c-3.644,4.047-5.423,9.122-5.393,14.171v15.391
	L256,176.492V87.425C250.554,87.425,245.592,89.499,241.86,92.899z"/>
<polygon style="fill:#FF0019;" points="375.78,205.314 302.439,192.133 305.495,424.575 354.448,424.575 "/>
<polygon style="fill:#DCE4EC;" points="242.82,192.133 256,424.575 305.495,424.575 315.619,205.314 "/>
<polygon style="fill:#F7F7F8;" points="183.201,192.133 206.505,424.575 256,424.575 256,205.314 "/>
<polygon style="fill:#FF4E0A;" points="136.22,205.314 157.552,424.575 206.505,424.575 196.381,205.314 166.225,192.133 "/>
<polygon style="fill:#CC0014;" points="391,163.311 256,163.311 242.82,184.312 256,205.314 391,205.314 "/>
<rect x="121" y="163.31" style="fill:#FF0019;" width="135" height="42"/>
<g>
</g>
<g>
</g>
<g>
</g>
<g>
</g>
<g>
</g>
<g>
</g>
<g>
</g>
<g>
</g>
<g>
</g>
<g>
</g>
<g>
</g>
<g>
</g>
<g>
</g>
<g>
</g>
<g>
</g>
</svg>
